<?xml version="1.0" encoding="UTF-8"?>
<svg width="250" height="40" fill="none" version="1.1" viewBox="0 0 250 40" xmlns="http://www.w3.org/2000/svg">
 <g fill="#fff">
  <path d="m171.44 27.41c-1.28 0-2.432-0.28-3.456-0.84-1.024-0.576-1.832-1.384-2.424-2.424-0.576-1.04-0.864-2.24-0.864-3.6s0.296-2.56 0.888-3.6c0.608-1.04 1.432-1.84 2.472-2.4 1.04-0.576 2.2-0.864 3.48-0.864s2.44 0.288 3.48 0.864c1.04 0.56 1.856 1.36 2.448 2.4 0.608 1.04 0.912 2.24 0.912 3.6s-0.312 2.56-0.936 3.6c-0.608 1.04-1.44 1.848-2.496 2.424-1.04 0.56-2.208 0.84-3.504 0.84zm0-2.928c0.608 0 1.176-0.144 1.704-0.432 0.544-0.304 0.976-0.752 1.296-1.344s0.48-1.312 0.48-2.16c0-1.264-0.336-2.232-1.008-2.904-0.656-0.688-1.464-1.032-2.424-1.032s-1.768 0.344-2.424 1.032c-0.64 0.672-0.96 1.64-0.96 2.904s0.312 2.24 0.936 2.928c0.64 0.672 1.44 1.008 2.4 1.008z"/>
  <path d="m188.21 13.706c1.584 0 2.864 0.504 3.84 1.512 0.976 0.992 1.464 2.384 1.464 4.176v7.8h-3.36v-7.344c0-1.056-0.264-1.864-0.792-2.424-0.528-0.576-1.248-0.864-2.16-0.864-0.928 0-1.664 0.288-2.208 0.864-0.528 0.56-0.792 1.368-0.792 2.424v7.344h-3.36v-13.296h3.36v1.656c0.448-0.576 1.016-1.024 1.704-1.344 0.704-0.336 1.472-0.504 2.304-0.504z"/>
  <path d="m209.07 20.258c0 0.48-0.032 0.912-0.096 1.296h-9.72c0.08 0.96 0.416 1.712 1.008 2.256s1.32 0.816 2.184 0.816c1.248 0 2.136-0.536 2.664-1.608h3.624c-0.384 1.28-1.12 2.336-2.208 3.168-1.088 0.816-2.424 1.224-4.008 1.224-1.28 0-2.432-0.28-3.456-0.84-1.008-0.576-1.8-1.384-2.376-2.424-0.56-1.04-0.84-2.24-0.84-3.6 0-1.376 0.28-2.584 0.84-3.624s1.344-1.84 2.352-2.4 2.168-0.84 3.48-0.84c1.264 0 2.392 0.272 3.384 0.816 1.008 0.544 1.784 1.32 2.328 2.328 0.56 0.992 0.84 2.136 0.84 3.432zm-3.48-0.96c-0.016-0.864-0.328-1.552-0.936-2.064-0.608-0.528-1.352-0.792-2.232-0.792-0.832 0-1.536 0.256-2.112 0.768-0.56 0.496-0.904 1.192-1.032 2.088z"/>
  <path d="m224.24 13.898-8.232 19.584h-3.576l2.88-6.624-5.328-12.96h3.768l3.432 9.288 3.48-9.288z"/>
 </g>
 <path d="m34.142 5.8578c-3.7775-3.7775-8.8-5.8578-14.142-5.8578s-10.365 2.0803-14.142 5.8578-5.8578 8.8-5.8578 14.142 2.0804 10.365 5.8578 14.142 8.8 5.8578 14.142 5.8578 10.365-2.0803 14.142-5.8578 5.8578-8.8 5.8578-14.142-2.0804-10.365-5.8578-14.142z" fill="#ff9f1c" stroke="#ff9f1c"/>
 <g clip-path="url(#clip0)" stroke="#fff" stroke-linecap="round" stroke-linejoin="round" stroke-width="2">
  <path d="m20.571 8v25.143"/>
  <path d="m26.286 12.571h-8.5714c-1.0609 0-2.0783 0.4215-2.8284 1.1716-0.7502 0.7501-1.1716 1.7676-1.1716 2.8284 0 1.0609 0.4214 2.0783 1.1716 2.8285 0.7501 0.7501 1.7675 1.1715 2.8284 1.1715h5.7143c1.0608 0 2.0783 0.4215 2.8284 1.1716 0.7502 0.7502 1.1716 1.7676 1.1716 2.8284 0 1.0609-0.4214 2.0783-1.1716 2.8285-0.7501 0.7501-1.7676 1.1715-2.8284 1.1715h-9.7143"/>
 </g>
 <defs>
  <clipPath id="clip0">
   <rect transform="translate(6.8572 6.8571)" width="27.429" height="27.429" fill="#fff"/>
  </clipPath>
 </defs>
 <g fill="#fff">
  <path d="m69.95 9.2887c2.1665 0 3.9083 0.66908 5.2252 2.0072 1.3382 1.3169 2.0072 3.1648 2.0072 5.5438v10.355h-4.4605v-9.7494c0-1.3806-0.35047-2.432-1.0514-3.1542-0.70094-0.74342-1.6568-1.1151-2.8675-1.1151s-2.1772 0.37171-2.8993 1.1151c-0.70094 0.72218-1.0514 1.7736-1.0514 3.1542v9.7494h-4.4604v-9.7494c0-1.3806-0.35047-2.432-1.0514-3.1542-0.70094-0.74342-1.6568-1.1151-2.8675-1.1151-1.232 0-2.209 0.37171-2.9312 1.1151-0.70094 0.72218-1.0514 1.7736-1.0514 3.1542v9.7494h-4.4605v-17.651h4.4605v2.1347c0.5735-0.74342 1.3063-1.3275 2.1984-1.7523 0.91334-0.42481 1.9116-0.63722 2.9949-0.63722 1.3806 0 2.6126 0.29737 3.6959 0.8921 1.0833 0.5735 1.9221 1.4019 2.5169 2.4851 0.5735-1.0195 1.4019-1.8373 2.4851-2.4533 1.1045-0.61598 2.294-0.92396 3.5684-0.92396z" stroke-width="1.3275"/>
  <path d="m86.945 27.194c-1.28 0-2.432-0.28-3.456-0.84-1.024-0.576-1.832-1.384-2.424-2.424-0.576-1.04-0.864-2.24-0.864-3.6s0.296-2.56 0.888-3.6c0.608-1.04 1.432-1.84 2.472-2.4 1.04-0.576 2.2-0.864 3.48-0.864s2.44 0.288 3.48 0.864c1.04 0.56 1.856 1.36 2.448 2.4 0.608 1.04 0.912 2.24 0.912 3.6s-0.312 2.56-0.936 3.6c-0.608 1.04-1.44 1.848-2.496 2.424-1.04 0.56-2.208 0.84-3.504 0.84zm0-2.928c0.608 0 1.176-0.144 1.704-0.432 0.544-0.304 0.976-0.752 1.296-1.344s0.48-1.312 0.48-2.16c0-1.264-0.336-2.232-1.008-2.904-0.656-0.688-1.464-1.032-2.424-1.032s-1.768 0.344-2.424 1.032c-0.64 0.672-0.96 1.64-0.96 2.904s0.312 2.24 0.936 2.928c0.64 0.672 1.44 1.008 2.4 1.008z"/>
  <path d="m102.92 13.706c1.584 0 4.4342 2.9984 4.4342 2.9984s-0.60872 3.2585-3.0859 3.9748c-0.13922-0.07165 0.0714-2.0913 0.0168-2.3661 0.0976-0.75991-1.4611-1.7511-2.3731-1.7511-0.928 0-1.664 0.288-2.208 0.864-0.528 0.56-0.792 1.368-0.792 2.424v7.344h-3.36v-13.296h3.36v1.656c0.448-0.576 1.016-1.024 1.704-1.344 0.704-0.336 1.472-0.504 2.304-0.504z"/>
  <path d="m121.34 19.722c0 0.48-0.032 0.912-0.096 1.296h-9.72c0.08 0.96 0.416 1.712 1.008 2.256s1.32 0.816 2.184 0.816c1.248 0 2.136-0.536 2.664-1.608h3.624c-0.384 1.28-1.12 2.336-2.208 3.168-1.088 0.816-2.424 1.224-4.008 1.224-1.28 0-2.432-0.28-3.456-0.84-1.008-0.576-1.8-1.384-2.376-2.424-0.56-1.04-0.84-2.24-0.84-3.6 0-1.376 0.28-2.584 0.84-3.624s1.344-1.84 2.352-2.4 2.168-0.84 3.48-0.84c1.264 0 2.392 0.272 3.384 0.816 1.008 0.544 1.784 1.32 2.328 2.328 0.56 0.992 0.84 2.136 0.84 3.432zm-3.48-0.96c-0.016-0.864-0.328-1.552-0.936-2.064-0.608-0.528-1.352-0.792-2.232-0.792-0.832 0-1.536 0.256-2.112 0.768-0.56 0.496-0.904 1.192-1.032 2.088z"/>
  <path d="m156.58 9.2887c2.1665 0 3.9083 0.66908 5.2252 2.0072 1.3382 1.3169 2.0072 3.1648 2.0072 5.5438v10.355h-4.4605v-9.7494c0-1.3806-0.35046-2.432-1.0514-3.1542-0.70094-0.74342-1.6568-1.1151-2.8675-1.1151s-2.1772 0.37171-2.8993 1.1151c-0.70093 0.72218-1.0514 1.7736-1.0514 3.1542v9.7494h-4.4604v-9.7494c0-1.3806-0.35047-2.432-1.0514-3.1542-0.70093-0.74342-1.6568-1.1151-2.8675-1.1151-1.232 0-2.209 0.37171-2.9312 1.1151-0.70094 0.72218-1.0514 1.7736-1.0514 3.1542v9.7494h-4.4605v-17.651h4.4605v2.1347c0.5735-0.74342 1.3063-1.3275 2.1984-1.7523 0.91334-0.42481 1.9116-0.63722 2.9949-0.63722 1.3806 0 2.6126 0.29737 3.6958 0.8921 1.0833 0.5735 1.9221 1.4019 2.5169 2.4851 0.5735-1.0195 1.4019-1.8373 2.4851-2.4533 1.1045-0.61598 2.294-0.92396 3.5684-0.92396z" stroke-width="1.3275"/>
 </g>
</svg>
